<mxfile host="app.diagrams.net" modified="2024-04-02T08:19:24.890Z" agent="Mozilla/5.0 (Windows NT 10.0; Win64; x64) AppleWebKit/537.36 (KHTML, like Gecko) Chrome/123.0.0.0 Safari/537.36" etag="VM4X-TJJzwEtDAx1KUWM" version="24.2.1" type="device">
  <diagram name="Page-1" id="aF2TbqQQgDGLC9iLLjp1">
    <mxGraphModel dx="1050" dy="565" grid="1" gridSize="10" guides="1" tooltips="1" connect="1" arrows="1" fold="1" page="1" pageScale="1" pageWidth="1169" pageHeight="827" math="0" shadow="0">
      <root>
        <mxCell id="0" />
        <mxCell id="1" parent="0" />
        <mxCell id="cq1qKr55h0laaSMrLUK4-9" style="rounded=0;orthogonalLoop=1;jettySize=auto;html=1;entryX=0.5;entryY=0;entryDx=0;entryDy=0;endArrow=none;endFill=0;dashed=1;edgeStyle=orthogonalEdgeStyle;" edge="1" parent="1" source="cq1qKr55h0laaSMrLUK4-1" target="cq1qKr55h0laaSMrLUK4-4">
          <mxGeometry relative="1" as="geometry" />
        </mxCell>
        <mxCell id="cq1qKr55h0laaSMrLUK4-10" style="rounded=0;orthogonalLoop=1;jettySize=auto;html=1;entryX=0;entryY=0.5;entryDx=0;entryDy=0;startArrow=none;startFill=0;endArrow=none;endFill=0;dashed=1;edgeStyle=orthogonalEdgeStyle;" edge="1" parent="1" source="cq1qKr55h0laaSMrLUK4-1" target="cq1qKr55h0laaSMrLUK4-2">
          <mxGeometry relative="1" as="geometry" />
        </mxCell>
        <mxCell id="cq1qKr55h0laaSMrLUK4-1" value="Реєстрація" style="rounded=0;whiteSpace=wrap;html=1;" vertex="1" parent="1">
          <mxGeometry x="480" y="120" width="120" height="60" as="geometry" />
        </mxCell>
        <mxCell id="cq1qKr55h0laaSMrLUK4-2" value="Вхід" style="rounded=0;whiteSpace=wrap;html=1;" vertex="1" parent="1">
          <mxGeometry x="670" y="120" width="120" height="60" as="geometry" />
        </mxCell>
        <mxCell id="cq1qKr55h0laaSMrLUK4-3" value="Сторінка проходження тестування теми" style="rounded=0;whiteSpace=wrap;html=1;" vertex="1" parent="1">
          <mxGeometry x="480" y="430" width="120" height="60" as="geometry" />
        </mxCell>
        <mxCell id="cq1qKr55h0laaSMrLUK4-11" style="rounded=0;orthogonalLoop=1;jettySize=auto;html=1;entryX=0.5;entryY=0;entryDx=0;entryDy=0;endArrow=none;endFill=0;dashed=1;edgeStyle=orthogonalEdgeStyle;" edge="1" parent="1" source="cq1qKr55h0laaSMrLUK4-4" target="cq1qKr55h0laaSMrLUK4-5">
          <mxGeometry relative="1" as="geometry" />
        </mxCell>
        <mxCell id="cq1qKr55h0laaSMrLUK4-15" style="rounded=0;orthogonalLoop=1;jettySize=auto;html=1;entryX=0.5;entryY=0;entryDx=0;entryDy=0;endArrow=none;endFill=0;dashed=1;edgeStyle=orthogonalEdgeStyle;" edge="1" parent="1" source="cq1qKr55h0laaSMrLUK4-4" target="cq1qKr55h0laaSMrLUK4-8">
          <mxGeometry relative="1" as="geometry" />
        </mxCell>
        <mxCell id="cq1qKr55h0laaSMrLUK4-4" value="Профіль" style="rounded=0;whiteSpace=wrap;html=1;" vertex="1" parent="1">
          <mxGeometry x="480" y="230" width="120" height="60" as="geometry" />
        </mxCell>
        <mxCell id="cq1qKr55h0laaSMrLUK4-12" style="rounded=0;orthogonalLoop=1;jettySize=auto;html=1;entryX=0.5;entryY=0;entryDx=0;entryDy=0;endArrow=none;endFill=0;dashed=1;edgeStyle=orthogonalEdgeStyle;" edge="1" parent="1" source="cq1qKr55h0laaSMrLUK4-5" target="cq1qKr55h0laaSMrLUK4-7">
          <mxGeometry relative="1" as="geometry" />
        </mxCell>
        <mxCell id="cq1qKr55h0laaSMrLUK4-13" style="rounded=0;orthogonalLoop=1;jettySize=auto;html=1;endArrow=none;endFill=0;dashed=1;edgeStyle=orthogonalEdgeStyle;" edge="1" parent="1" source="cq1qKr55h0laaSMrLUK4-5" target="cq1qKr55h0laaSMrLUK4-6">
          <mxGeometry relative="1" as="geometry" />
        </mxCell>
        <mxCell id="cq1qKr55h0laaSMrLUK4-5" value="Навчальні матеріали" style="rounded=0;whiteSpace=wrap;html=1;" vertex="1" parent="1">
          <mxGeometry x="310" y="290" width="120" height="60" as="geometry" />
        </mxCell>
        <mxCell id="cq1qKr55h0laaSMrLUK4-14" style="rounded=0;orthogonalLoop=1;jettySize=auto;html=1;entryX=0.5;entryY=0;entryDx=0;entryDy=0;endArrow=none;endFill=0;dashed=1;edgeStyle=orthogonalEdgeStyle;" edge="1" parent="1" source="cq1qKr55h0laaSMrLUK4-6" target="cq1qKr55h0laaSMrLUK4-3">
          <mxGeometry relative="1" as="geometry" />
        </mxCell>
        <mxCell id="cq1qKr55h0laaSMrLUK4-6" value="Сторінка теми" style="rounded=0;whiteSpace=wrap;html=1;" vertex="1" parent="1">
          <mxGeometry x="480" y="340" width="120" height="60" as="geometry" />
        </mxCell>
        <mxCell id="cq1qKr55h0laaSMrLUK4-7" value="Створення теми, тестування" style="rounded=0;whiteSpace=wrap;html=1;" vertex="1" parent="1">
          <mxGeometry x="160" y="384" width="120" height="60" as="geometry" />
        </mxCell>
        <mxCell id="cq1qKr55h0laaSMrLUK4-8" value="Сторінка адміністратора" style="rounded=0;whiteSpace=wrap;html=1;" vertex="1" parent="1">
          <mxGeometry x="670" y="290" width="120" height="60" as="geometry" />
        </mxCell>
      </root>
    </mxGraphModel>
  </diagram>
</mxfile>
